<svg width="481" height="790" viewBox="0 0 481 790" fill="none" xmlns="http://www.w3.org/2000/svg">
<path d="M201.912 282.608L206.033 286.257L211.425 284.971L209.171 290.029L212.042 294.778L206.581 294.184L202.939 298.361L201.817 292.948L196.726 290.865L201.489 288.103L201.912 282.608Z" fill="white"/>
<path d="M291.125 232.293L292.014 235.403L295.09 236.462L292.37 238.246L292.282 241.533L289.753 239.518L286.65 240.461L287.764 237.379L285.932 234.72L289.171 234.87L291.125 232.293Z" fill="white"/>
<path d="M341.003 242.598L341.838 245.715L344.92 246.828L342.2 248.612L342.16 251.838L339.631 249.823L336.474 250.773L337.649 247.738L335.755 245.032L339.049 245.175L341.003 242.598Z" fill="white"/>
<path d="M256.901 505.896L257.743 509.067L260.818 510.126L258.098 511.91L258.065 515.19L255.529 513.12L252.372 514.071L253.547 511.036L251.66 508.385L254.954 508.528L256.901 505.896Z" fill="white"/>
<path d="M276.774 540.891L278.224 546.263L283.446 548.053L278.826 551.074L278.745 556.637L274.425 553.18L269.129 554.787L271.089 549.599L267.911 545.055L273.44 545.307L276.774 540.891Z" fill="white"/>
<path d="M103.81 397.228L105.307 402.538L110.536 404.382L105.916 407.404L105.774 412.919L101.461 409.516L96.2191 411.116L98.1251 405.935L94.9464 401.391L100.475 401.643L103.81 397.228Z" fill="white"/>
<path d="M382.309 625.859L383.807 631.169L389.035 633.013L384.416 636.035L384.273 641.55L379.96 638.147L374.718 639.747L376.624 634.567L373.446 630.022L378.975 630.274L382.309 625.859Z" fill="white"/>
<path d="M188.887 682.553L190.33 687.87L195.559 689.714L190.939 692.735L190.851 698.244L186.531 694.786L181.235 696.393L183.202 691.26L180.024 686.716L185.553 686.968L188.887 682.553Z" fill="white"/>
<path d="M250.008 344.779C249.693 344.929 249.379 345.08 249.071 345.285C248.757 345.435 248.504 345.633 248.183 345.729C248.395 345.647 248.613 345.62 248.825 345.537C248.443 345.585 248.005 345.64 247.636 345.797C247.479 345.873 247.322 345.948 247.165 346.023C246.748 346.242 246.283 346.522 245.866 346.741C246.618 346.536 247.37 346.33 248.074 346.187C248.306 346.269 248.593 346.344 248.819 346.371C248.532 346.296 248.292 346.159 248.012 346.139C247.219 346.016 246.358 346.235 245.702 346.761C245.299 347.089 244.916 347.582 244.698 348.053C243.926 349.871 245.088 352.058 247.07 352.365C247.747 352.447 248.396 352.31 249.031 352.064C249.134 351.996 249.298 351.975 249.4 351.907C249.715 351.757 250.029 351.606 250.282 351.408C250.993 350.875 251.239 350.178 251.471 349.371C251.307 349.836 251.081 350.253 250.917 350.718C251.061 350.533 251.259 350.342 251.409 350.212C251.498 350.034 251.642 349.849 251.724 349.617C251.806 349.385 251.84 349.214 251.922 348.981C252.017 348.414 251.887 347.82 251.6 347.3C251.382 346.883 251.067 346.59 250.705 346.357C250.165 346.036 249.714 345.982 249.106 346.002C248.832 346.036 248.607 346.009 248.333 346.043C248.839 346.091 249.352 346.193 249.803 346.248C249.563 346.111 249.222 346.043 248.935 345.968C248.422 345.866 247.828 345.996 247.349 346.166C247.24 346.18 247.192 346.242 247.083 346.255C246.98 346.324 246.816 346.344 246.707 346.358C246.973 346.269 247.247 346.235 247.513 346.146C247.459 346.153 247.349 346.166 247.295 346.173C247.575 346.194 247.848 346.16 248.128 346.18C248.128 346.18 248.128 346.18 248.074 346.187C248.306 346.269 248.593 346.344 248.825 346.426C249.065 346.563 249.304 346.699 249.488 346.843C249.68 347.041 249.871 347.239 250.056 347.383C250.193 347.588 250.336 347.847 250.473 348.052C250.562 348.319 250.596 348.592 250.685 348.859C250.664 349.139 250.699 349.412 250.678 349.692C250.596 349.925 250.521 350.212 250.439 350.444C250.302 350.683 250.166 350.923 250.022 351.107L250.07 351.046C249.872 351.237 249.674 351.429 249.53 351.613C249.728 351.422 249.933 351.285 250.125 351.039C250.405 350.615 250.671 350.082 250.719 349.576C250.74 349.296 250.698 348.968 250.719 348.688C250.535 349.433 250.289 350.13 250.104 350.875C250.2 350.752 250.302 350.683 250.398 350.56C250.2 350.752 250.049 350.882 249.851 351.073C250.002 350.943 250.145 350.759 250.35 350.622C250.849 350.171 251.04 349.925 251.355 349.33C251.396 349.214 251.443 349.152 251.539 349.029C251.45 349.207 251.307 349.392 251.218 349.569L251.266 349.508C251.115 349.638 250.972 349.822 250.822 349.952C251.32 349.501 251.819 349.05 252.38 348.647C253.234 347.929 253.528 346.726 252.953 345.687C252.297 344.881 250.998 344.266 250.008 344.779Z" fill="white"/>
<path d="M213.327 427.5C213.279 427.561 213.184 427.684 213.136 427.746C213.901 427.65 214.667 427.554 215.432 427.459C215.432 427.459 215.425 427.404 215.371 427.411C214.872 426.973 213.908 426.816 213.341 427.165C213.293 427.227 213.184 427.24 213.129 427.247C213.293 427.227 213.505 427.145 213.669 427.124C213.614 427.131 213.559 427.138 213.559 427.138C213.723 427.117 213.949 427.144 214.113 427.124C214.058 427.131 214.058 427.131 213.997 427.083C214.168 427.117 214.345 427.206 214.516 427.24C214.516 427.24 214.462 427.247 214.455 427.192C214.633 427.281 214.756 427.377 214.933 427.466L214.872 427.418C215.002 427.568 215.125 427.664 215.254 427.814C215.248 427.759 215.193 427.766 215.186 427.712C215.261 427.869 215.391 428.019 215.466 428.176C215.405 428.128 215.391 428.019 215.384 427.964C215.412 428.183 215.487 428.34 215.514 428.559C215.501 428.45 215.494 428.395 215.48 428.286C215.425 427.848 215.207 427.431 214.94 427.076C214.461 426.358 213.484 426.092 212.678 426.304C211.871 426.516 211.236 427.206 211.065 428.061C210.881 429.25 211.551 430.61 212.665 431.081C213.191 431.293 213.697 431.341 214.291 431.211C214.879 431.026 215.282 430.698 215.726 430.254C215.822 430.131 215.911 429.953 216.007 429.83C216.143 429.591 216.164 429.311 216.13 429.037C216.129 428.593 216.013 428.108 215.747 427.752C215.747 427.752 215.747 427.752 215.685 427.705C215.658 428.374 215.685 429.037 215.658 429.707C215.706 429.646 215.802 429.523 215.849 429.461C216.321 428.791 216.3 427.739 215.569 427.219C214.837 426.7 213.908 426.816 213.327 427.5Z" fill="white"/>
<path d="M126.906 331.533C126.852 331.54 126.852 331.54 126.797 331.547C126.961 331.526 127.132 331.56 127.296 331.54C127.07 331.512 126.852 331.54 126.626 331.512C127.193 332.052 127.713 332.654 128.28 333.193C128.273 333.139 128.273 333.139 128.266 333.084C128.184 332.872 128.157 332.653 128.075 332.442C127.979 332.12 127.781 331.868 127.535 331.676C127.159 331.335 126.735 331.055 126.223 330.952C126.168 330.959 126.106 330.911 126.052 330.918C126.223 330.952 126.455 331.034 126.626 331.068C126.571 331.075 126.51 331.027 126.448 330.979C126.626 331.068 126.804 331.157 126.988 331.3L126.927 331.253C127.057 331.403 127.186 331.553 127.371 331.697C127.364 331.642 127.309 331.649 127.303 331.594C127.378 331.751 127.515 331.956 127.59 332.114L127.583 332.059C127.665 332.271 127.692 332.49 127.767 332.647L127.761 332.592C127.733 332.818 127.761 333.036 127.727 333.207C127.72 333.152 127.72 333.152 127.768 333.091C127.733 333.262 127.651 333.494 127.617 333.665C127.61 333.61 127.658 333.549 127.658 333.549C127.569 333.727 127.481 333.904 127.337 334.089C127.385 334.027 127.426 333.911 127.528 333.843C127.378 333.973 127.228 334.103 127.084 334.287C127.132 334.226 127.235 334.157 127.282 334.096C127.638 333.829 127.986 333.508 128.15 333.043C128.191 332.927 128.225 332.756 128.321 332.633C128.683 331.977 128.382 330.904 127.774 330.48C126.988 329.968 126.058 329.64 125.115 330.091C124.535 330.33 124.029 330.727 123.653 331.274C123.031 332.073 122.936 333.085 123.271 333.987C123.435 334.411 123.763 334.814 124.132 335.101C124.563 335.436 125.021 335.545 125.54 335.702C126.285 335.886 127.337 335.422 127.761 334.813C127.809 334.752 127.85 334.635 127.898 334.574C127.481 334.793 127.016 335.073 126.599 335.292C126.818 335.264 127.091 335.23 127.303 335.148C127.788 335.032 128.212 334.868 128.547 334.437C128.834 334.068 128.991 333.549 128.929 333.057C128.868 332.565 128.642 332.093 128.218 331.813C128.095 331.717 127.918 331.628 127.801 331.587C127.569 331.505 127.234 331.492 126.906 331.533Z" fill="white"/>
<path d="M249.315 242.524C249.28 242.251 249.178 240.986 249.219 242.203C249.233 241.868 249.246 241.533 249.205 241.205C249.096 240.33 248.651 239.886 248.077 239.292C248.33 239.982 248.638 240.665 248.891 241.356C249 240.453 249.089 239.387 248.186 238.834C247.284 238.28 246.184 238.807 245.412 239.292C245.952 239.169 246.485 238.991 247.079 238.861C247.025 238.868 246.97 238.875 246.908 238.827C246.013 238.773 244.879 239.026 244.373 239.866C243.963 240.584 243.758 241.165 243.745 241.944C243.745 242.388 243.738 242.778 243.793 243.215C243.916 244.644 245.461 245.894 246.93 245.655C248.392 245.361 249.561 244.048 249.315 242.524Z" fill="white"/>
<path d="M323.772 229.596C323.458 230.19 323.724 230.101 323.15 230.395C324.203 230.819 325.262 231.297 326.315 231.721C326.369 232.158 326.54 230.415 326.437 230.039C326.301 229.39 325.733 228.85 325.023 228.939C323.389 229.199 322.221 230.512 322.378 232.213C322.501 233.642 324.443 234.509 325.543 233.539C326.493 232.698 326.458 231.536 326.759 230.388C327.21 228.666 324.53 228.112 323.772 229.596Z" fill="white"/>
<path d="M382.342 658.951C381.959 658.554 381.522 658.165 381.139 657.768C380.824 657.475 380.196 657.331 379.82 657.434C379.382 657.489 378.911 657.714 378.624 658.083C378.35 658.562 378.022 659.047 377.749 659.525C377.585 659.99 377.476 660.448 377.531 660.885C377.592 661.378 377.756 661.801 378.078 662.15C378.672 662.908 379.609 663.291 380.538 663.175C381.468 663.058 382.281 662.457 382.67 661.575C382.834 661.11 382.943 660.652 382.889 660.215C382.779 659.784 382.615 659.361 382.342 658.951Z" fill="white"/>
<path d="M365.692 606.671C365.596 606.794 365.494 606.862 365.398 606.985C365.542 606.801 365.747 606.664 365.89 606.48C365.795 606.603 365.692 606.671 365.535 606.746C365.74 606.609 365.952 606.527 366.157 606.391C366.102 606.397 366.054 606.459 365.945 606.473C366.157 606.391 366.43 606.356 366.642 606.274C366.587 606.281 366.587 606.281 366.533 606.288C366.758 606.315 367.032 606.281 367.257 606.308C367.202 606.315 367.148 606.322 367.086 606.274C367.319 606.356 367.544 606.384 367.777 606.466C367.777 606.466 367.722 606.472 367.715 606.418C367.9 606.561 368.132 606.643 368.316 606.787C368.262 606.793 368.255 606.739 368.193 606.691C368.378 606.835 368.515 607.04 368.699 607.183C368.631 607.08 368.562 606.978 368.494 606.875C368.631 607.08 368.713 607.292 368.85 607.497C368.638 607.135 368.487 606.821 368.234 606.575C368.111 606.479 367.981 606.329 367.858 606.233C367.291 605.693 366.396 605.639 365.692 605.782C364.94 605.988 364.277 606.459 364.038 607.211C363.704 608.086 363.745 608.858 364.025 609.767C364.278 610.457 364.791 611.004 365.392 611.373C366.41 611.967 367.511 611.885 368.495 611.318C369.062 610.969 369.561 610.518 369.937 609.971C370.367 609.418 370.606 608.666 370.517 607.955C370.435 607.299 370.059 606.513 369.458 606.144C368.296 605.29 366.71 605.488 365.692 606.671Z" fill="white"/>
<path d="M258.743 567.637C258.463 567.616 258.128 567.603 257.841 567.528C258.011 567.562 258.244 567.644 258.415 567.678C258.415 567.678 258.36 567.685 258.353 567.63C258.531 567.719 258.709 567.808 258.893 567.951C258.893 567.951 258.838 567.958 258.832 567.903C258.962 568.054 259.091 568.204 259.276 568.347C259.351 568.505 259.488 568.71 259.563 568.867C259.563 568.867 259.563 568.867 259.556 568.812C259.638 569.024 259.666 569.243 259.741 569.4C259.714 569.625 259.741 569.844 259.707 570.015C259.7 569.96 259.693 569.906 259.741 569.844C259.707 570.015 259.625 570.247 259.591 570.418C259.625 570.247 259.72 570.124 259.809 569.947C259.98 569.536 260.158 569.181 260.212 568.73C260.41 567.206 258.865 565.955 257.383 566.53C256.692 566.783 256.146 567.295 255.715 567.849C255.087 568.594 254.882 569.619 255.217 570.521C255.682 571.574 256.755 572.161 257.903 572.018C258.395 571.956 258.873 571.785 259.297 571.621C259.454 571.546 259.604 571.416 259.762 571.341C260.021 571.197 260.158 570.958 260.295 570.719C260.52 570.302 260.684 569.837 260.568 569.352C260.52 568.969 260.363 568.6 260.158 568.293C259.85 568.053 259.242 567.63 258.743 567.637Z" fill="white"/>
<path d="M195.503 640.91C195.36 641.095 195.168 641.341 195.025 641.525C194.977 641.587 194.881 641.71 194.833 641.772C195.23 641.389 195.332 641.32 195.127 641.457C194.724 641.785 195.817 641.204 195.435 641.252C194.997 641.307 194.3 641.949 194.123 642.305C194.915 641.983 195.708 641.662 196.501 641.341C196.166 641.327 195.879 641.252 195.599 641.231C193.931 641.218 192.92 642.455 193.399 644.061C193.515 644.546 193.795 645.011 194.116 645.36C193.952 644.936 193.788 644.512 193.631 644.143C193.638 644.198 193.638 644.198 193.645 644.253C193.761 645.182 194.451 646.262 195.374 646.535C196.591 646.938 197.739 646.794 198.75 646.001C199.31 645.598 199.734 644.99 200.219 644.429C201.176 643.199 200.984 641.224 199.699 640.274C198.319 639.447 196.507 639.618 195.503 640.91Z" fill="white"/>
<path d="M110.299 547.123C112.301 546.706 113.805 545.407 115.014 543.979C115.882 542.926 115.13 541.354 113.886 541.177C112.984 541.068 112.123 541.286 111.275 541.615C110.906 541.772 110.394 542.114 110.182 542.196C109.922 542.339 109.813 542.353 109.649 542.373C108.344 542.592 107.38 543.768 107.544 545.08C107.743 546.221 109 547.397 110.299 547.123Z" fill="white"/>
<path d="M168.845 527.301C168.954 527.288 168.934 527.124 168.825 527.137C168.708 527.096 168.736 527.315 168.845 527.301Z" fill="white"/>
<path d="M63.7346 360.985C63.5637 360.951 63.3997 360.971 63.2288 360.937C59.4357 360.357 60.3458 367.184 64.282 364.915C64.5416 364.771 64.7945 364.573 65.0542 364.429C66.1339 363.739 65.8875 361.771 64.6709 361.368C64.3771 361.238 64.09 361.163 63.803 361.087C59.4288 359.858 60.291 366.747 63.7626 365.202C63.9198 365.127 64.0838 365.106 64.2409 365.031C66.8926 364.477 66.4478 360.923 63.7346 360.985Z" fill="white"/>
<path d="M56.4322 511.607C59.3845 511.238 58.8166 506.7 55.8642 507.069C52.9665 507.432 53.4798 511.977 56.4322 511.607Z" fill="white"/>
<path d="M126.104 703.127C126.145 702.567 126.233 701.945 126.329 701.377C126.445 700.53 125.577 699.806 124.791 700.182C124.265 700.414 123.677 700.599 123.151 700.831C121.559 701.419 121.388 703.606 122.673 704.556C123.849 705.519 125.981 704.808 126.104 703.127Z" fill="white"/>
<path d="M293.082 762.579C293.205 762.231 293.335 761.937 293.403 761.595C293.519 761.192 293.574 760.741 293.628 760.29C293.738 759.388 292.815 758.67 291.967 758.998C291.544 759.162 291.175 759.32 290.758 759.538C290.45 759.744 290.191 759.887 289.883 760.092C288.756 760.844 288.858 762.553 289.843 763.318C290.895 764.186 292.631 763.857 293.082 762.579Z" fill="white"/>
<path d="M466.163 349.043C465.972 349.289 465.774 349.481 465.582 349.727C466.69 350.588 467.735 351.401 468.843 352.262C468.938 352.139 468.979 352.023 469.075 351.9C469.533 351.12 469.69 350.157 469.102 349.453C468.842 349.152 468.651 348.954 468.302 348.831C467.421 348.442 466.525 348.831 465.938 349.46C465.842 349.583 465.74 349.652 465.644 349.775C463.826 351.668 467.162 354.36 468.904 352.31C469.096 352.064 469.287 351.817 469.424 351.578C470.988 349.439 467.851 347 466.163 349.043Z" fill="white"/>
<path d="M354.047 269.175C353.883 269.195 353.767 269.154 353.651 269.114C353.883 269.195 354.109 269.223 354.287 269.312C354.17 269.271 354.054 269.23 354.047 269.175C354.232 269.318 354.41 269.407 354.594 269.551C354.478 269.51 354.41 269.407 354.287 269.312C354.471 269.455 354.608 269.66 354.792 269.804C354.731 269.756 354.724 269.701 354.663 269.653C354.799 269.858 354.881 270.07 355.018 270.275C355.011 270.22 354.95 270.173 354.943 270.118C355.025 270.33 355.059 270.603 355.141 270.815C355.134 270.76 355.134 270.76 355.127 270.706C355.1 270.931 355.128 271.15 355.107 271.43C355.1 271.375 355.093 271.321 355.141 271.259C355.059 271.492 355.032 271.717 354.943 271.895C354.936 271.84 354.984 271.779 355.032 271.717C354.943 271.895 354.8 272.079 354.718 272.312C354.998 271.888 355.128 271.594 355.285 271.075C355.278 271.02 355.278 271.02 355.326 270.959C355.244 271.191 355.21 271.362 355.128 271.594C355.175 271.533 355.169 271.478 355.21 271.362C355.121 271.539 355.032 271.717 354.888 271.902C354.936 271.84 354.929 271.786 354.984 271.779C355.415 271.225 355.551 270.542 355.353 269.845C355.168 269.257 354.744 268.532 354.109 268.334C353.473 268.136 353.248 268.109 352.585 268.136C352.031 268.15 351.505 268.383 351.102 268.711C350.241 269.374 349.824 270.481 349.906 271.581C350.043 272.675 350.781 273.693 351.779 274.123C352.429 274.431 353.269 274.492 354.028 274.342C354.677 274.205 355.313 273.959 355.736 273.35C356.064 272.865 356.228 272.4 356.262 271.785C356.248 271.232 356.118 270.637 355.729 270.186C355.278 269.687 354.663 269.209 354.047 269.175Z" fill="white"/>
<path d="M312.231 198.166C311.725 199.007 311.11 199.862 310.906 200.887C310.769 201.57 310.913 202.274 311.049 202.923C311.289 203.948 312.13 204.898 313.325 204.693C314.521 204.488 315.13 203.579 315.095 202.417C315.075 202.253 315.116 202.137 315.095 201.973C315.17 202.574 315.075 202.253 315.109 202.082C315.102 202.027 315.136 201.857 315.129 201.802C315.164 202.075 314.972 202.321 315.102 202.027C315.013 202.205 314.767 202.458 315.013 202.205C315.109 202.082 315.157 202.021 315.252 201.898C315.498 201.645 315.744 201.392 315.983 201.084C316.872 200.196 316.537 198.405 315.559 197.694C314.65 197.086 312.921 197.025 312.231 198.166Z" fill="white"/>
<path d="M327.621 321.571C327.081 321.694 326.48 321.769 325.94 321.892C324.696 322.159 323.179 323.348 323.411 324.763C323.651 326.232 325.189 326.984 326.569 326.922C327.123 326.908 327.724 326.833 328.278 326.819C329.658 326.758 330.799 325.227 330.574 323.867C330.348 322.507 329.083 321.277 327.621 321.571Z" fill="white"/>
<path d="M463.419 242.825C463.529 242.811 463.508 242.647 463.399 242.661C463.283 242.62 463.31 242.839 463.419 242.825Z" fill="white"/>
<path d="M255.862 287.295C255.281 287.534 254.639 287.725 254.126 288.067C254.441 287.917 254.762 287.821 255.131 287.664C254.092 287.794 253.17 288.853 253.361 289.94C253.553 291.026 254.489 291.853 255.637 291.71C255.296 291.641 254.961 291.628 254.564 291.566C255.145 291.771 255.815 291.798 256.437 291.887C257.961 292.085 259.348 290.745 259.157 289.214C258.965 287.684 257.29 286.727 255.862 287.295Z" fill="white"/>
<path d="M209.03 221.467C209.139 221.454 209.119 221.29 209.01 221.303C208.9 221.317 208.921 221.481 209.03 221.467Z" fill="white"/>
<path d="M272.288 433.614C273.108 433.512 273.982 433.402 274.502 432.671C275.076 431.933 275.055 430.88 274.679 430.094C274.385 429.52 273.831 429.09 273.182 429.226C272.533 429.363 272.089 429.807 271.945 430.436C271.904 430.552 271.918 430.662 271.877 430.778C271.843 430.949 271.863 431.113 271.884 431.277C271.891 431.332 271.863 431.557 271.877 431.222C271.891 430.887 271.87 431.168 271.877 431.222C271.898 430.942 272.048 430.812 271.952 430.935C272.089 430.696 272.13 430.58 272.335 430.443C272.13 430.58 272.806 430.217 272.492 430.368C272.178 430.518 272.929 430.313 272.656 430.347C272.383 430.381 272.164 430.409 271.891 430.443C271.071 430.546 270.394 431.352 270.504 432.227C270.661 433.04 271.358 433.73 272.288 433.614Z" fill="white"/>
<path d="M326.716 172.365C326.176 172.488 325.581 172.618 325.048 172.796C325.267 172.768 325.424 172.693 325.643 172.666C325.588 172.672 325.588 172.672 325.533 172.679C325.697 172.659 325.923 172.686 326.087 172.666C326.032 172.672 326.032 172.672 325.978 172.679C326.148 172.713 326.326 172.802 326.497 172.836C326.442 172.843 326.435 172.789 326.381 172.795C326.558 172.884 326.681 172.98 326.859 173.069C326.62 172.932 326.381 172.795 326.196 172.652C326.319 172.748 326.435 172.789 326.613 172.877C326.558 172.884 326.552 172.829 326.497 172.836C326.135 172.604 325.725 172.433 325.287 172.488C324.85 172.543 324.488 172.755 324.201 173.124C323.476 173.992 323.415 175.277 324.085 176.192C324.488 176.753 325.151 177.17 325.883 177.245C326.388 177.292 326.833 177.292 327.331 177.285C327.94 177.265 328.603 176.793 328.937 176.362C329.32 175.87 329.566 175.173 329.436 174.579C329.299 173.929 329.06 173.348 328.513 172.973C328.007 172.481 327.303 172.18 326.716 172.365Z" fill="white"/>
<path d="M461.989 231.398C462.098 231.385 462.078 231.221 461.969 231.234C461.852 231.193 461.88 231.412 461.989 231.398Z" fill="white"/>
<path d="M264.063 324.417C263.899 324.438 263.68 324.465 263.516 324.486C263.133 324.533 262.634 324.54 262.272 324.752C261.534 325.067 260.974 325.914 261.083 326.789C261.247 327.657 261.828 328.306 262.737 328.47C263.134 328.532 263.626 328.47 264.008 328.422C264.173 328.401 264.391 328.374 264.555 328.354C265.594 328.224 266.407 327.178 266.277 326.139C266.031 325.059 265.149 324.226 264.063 324.417Z" fill="white"/>
<path d="M235.023 406.071C237.483 405.763 237.004 401.936 234.544 402.244C232.083 402.552 232.562 406.379 235.023 406.071Z" fill="white"/>
<path d="M232.23 337.619C232.326 337.496 232.469 337.312 232.565 337.189C233.18 336.334 233.125 335.008 232.216 334.4C231.362 333.785 230.097 333.888 229.428 334.749C229.189 335.057 228.997 335.303 228.758 335.61C228.567 335.857 228.423 336.041 228.232 336.287C228.184 336.349 228.089 336.472 228.041 336.533C227.713 337.019 227.501 337.545 227.576 338.146C227.706 339.185 228.691 339.95 229.729 339.82C230.495 339.724 230.939 339.28 231.369 338.727C231.561 338.48 231.704 338.296 231.896 338.05C232.135 337.742 232.326 337.496 232.565 337.189C231.519 336.375 230.474 335.562 229.428 334.749C229.332 334.872 229.189 335.057 229.093 335.18C228.417 335.986 228.588 337.353 229.449 338.023C230.296 338.583 231.561 338.48 232.23 337.619Z" fill="white"/>
<path d="M165.575 418.65C165.595 418.814 165.595 418.814 165.582 418.705C165.622 418.589 165.568 418.596 165.541 418.821C165.5 418.937 165.404 419.06 165.308 419.183C165.055 419.382 164.932 419.286 164.666 419.375C164.823 419.3 165.165 419.368 165.336 419.402C165.561 419.429 164.939 419.341 165.397 419.45C165.513 419.491 165.684 419.525 165.739 419.518C166.142 419.634 166.491 419.757 166.983 419.696C167.584 419.62 168.117 418.998 167.987 418.404C167.809 416.982 165.882 415.78 164.522 416.006C162.998 416.252 162.164 417.578 162.356 419.109C162.465 419.983 163.265 420.605 164.14 420.496C165.117 420.318 165.568 419.484 165.575 418.65Z" fill="white"/>
<path d="M252.051 472.463C254.839 472.114 254.299 467.795 251.51 468.144C248.722 468.493 249.262 472.812 252.051 472.463Z" fill="white"/>
<path d="M209.535 519.21C209.508 518.991 209.535 518.766 209.508 518.547C209.528 518.711 209.494 518.882 209.515 519.046C209.562 518.54 209.678 518.137 209.453 517.665C209.371 517.453 209.227 517.194 209.043 517.05C208.858 516.907 208.571 516.832 208.346 516.804C207.833 516.702 207.416 516.921 206.938 517.092C207.102 517.071 207.259 516.996 207.423 516.975C207.204 517.003 206.992 517.085 206.774 517.112C206.343 517.222 205.967 517.324 205.612 517.591C205.202 517.864 204.881 518.404 204.772 518.862C204.498 519.785 204.806 520.912 205.599 521.479C206.33 521.999 207.239 522.163 208.025 521.787C208.497 521.561 208.9 521.233 209.173 520.754C209.494 520.214 209.549 519.763 209.535 519.21Z" fill="white"/>
<path d="M289.462 562.404C289.086 562.506 288.758 562.547 288.382 562.65C284.268 563.498 288.978 568.739 290.317 565.24C290.324 565.294 290.378 565.288 290.385 565.342C291.096 564.809 290.945 563.606 290.125 563.265C290.132 563.319 290.077 563.326 290.084 563.381C287.931 560.374 284.597 566.566 288.848 566.368C289.237 566.374 289.565 566.333 289.955 566.34C292.49 566.189 291.957 561.925 289.462 562.404Z" fill="white"/>
<path d="M232.285 596.27C232.23 595.832 232.176 595.395 232.121 594.958C232.039 594.302 231.683 593.68 231.191 593.297C230.699 592.914 229.947 592.675 229.353 592.805C227.993 593.031 227.029 594.207 227.2 595.573C227.255 596.011 227.31 596.448 227.365 596.886C227.447 597.542 227.802 598.164 228.294 598.546C228.786 598.929 229.538 599.168 230.133 599.038C231.438 598.819 232.456 597.637 232.285 596.27Z" fill="white"/>
<path d="M337.752 599.95C337.534 599.978 337.315 600.005 337.096 600.032C337.616 600.19 338.074 600.299 338.593 600.456C338.532 600.408 338.532 600.408 338.47 600.36C337.903 599.82 336.898 599.78 336.208 600.033C334.882 600.532 334.233 602.001 334.732 603.327C334.999 604.127 335.792 604.694 336.543 604.933C337.241 605.179 338.102 605.404 338.813 605.315C339.195 605.267 339.571 605.165 339.892 605.069C340.316 604.905 340.665 604.584 340.951 604.214C341.525 603.476 341.341 602.444 340.657 601.864C340.596 601.816 340.534 601.768 340.473 601.72C340.596 601.816 340.726 601.966 340.794 602.069C340.48 601.775 340.288 601.577 339.878 601.406C339.762 601.365 339.7 601.317 339.584 601.276C339.229 601.098 338.832 601.037 338.484 600.914C338.655 600.948 338.832 601.037 339.058 601.064C338.709 600.941 338.368 600.873 338.067 600.688C338.245 600.777 338.422 600.866 338.552 601.016C338.436 600.975 338.368 600.873 338.306 600.825C338.436 600.975 338.566 601.126 338.744 601.215L338.682 601.167C338.757 601.324 338.894 601.529 338.969 601.686L338.962 601.631C338.99 601.85 339.065 602.007 339.092 602.226L339.085 602.171C339.113 602.39 339.079 602.561 339.106 602.78L339.099 602.725C339.065 602.896 338.983 603.128 338.949 603.299L338.942 603.244C338.853 603.422 338.764 603.6 338.614 603.73L338.662 603.668C338.512 603.798 338.361 603.928 338.266 604.051C338.313 603.989 338.368 603.982 338.368 603.982C338.211 604.058 338.006 604.194 337.849 604.27C338.211 604.058 338.58 603.9 338.812 603.538C339.045 603.176 339.215 602.766 339.277 602.369C338.846 602.923 338.464 603.415 338.033 603.969C338.088 603.962 338.197 603.948 338.245 603.887C338.081 603.907 337.924 603.983 337.705 604.01C337.869 603.989 337.972 603.921 338.136 603.901C338.676 603.777 339.147 603.552 339.427 603.128C339.714 602.759 339.919 602.178 339.858 601.686C339.775 600.586 338.853 599.868 337.752 599.95Z" fill="white"/>
<path d="M400.884 620.758C401.123 621.339 401.308 621.926 401.595 622.446C401.506 622.179 401.363 621.919 401.267 621.598C401.376 622.473 402.244 623.197 403.174 623.081C404.097 622.91 404.773 622.103 404.657 621.174C404.636 621.454 404.561 621.741 404.547 622.076C404.698 621.502 404.732 620.887 404.821 620.265C404.991 618.966 403.898 617.771 402.531 617.942C401.164 618.113 400.399 619.541 400.884 620.758Z" fill="white"/>
<path d="M406.311 671.665C405.826 671.782 405.28 671.85 404.876 672.178C404.671 672.315 404.528 672.5 404.33 672.691C403.886 673.135 404.002 674.065 404.542 674.386C404.726 674.529 404.959 674.611 405.198 674.748C405.67 674.966 406.216 674.898 406.715 674.891C407.105 674.898 407.563 674.563 407.802 674.255C408.041 673.948 408.198 673.428 408.15 673.046C408 672.287 407.173 671.447 406.311 671.665Z" fill="white"/>
<path d="M343.311 702.484C346.373 702.101 345.777 697.345 342.716 697.728C339.709 698.104 340.304 702.861 343.311 702.484Z" fill="white"/>
<path d="M495.15 451.088C487.533 430.163 474.647 411.507 456.903 397.958C441.312 386.082 422.49 378.554 402.855 377.402C360.516 374.982 320.061 403.59 302.387 441.175C292.911 461.297 290.153 484.076 295.59 505.774C301.205 528.005 314.835 548.622 331.452 564.256C347.317 579.207 367.63 590.214 389.534 592.636C400.401 593.831 411.438 592.838 421.935 589.747C432.589 586.581 442.396 581.078 451.56 574.878C468.562 563.421 483.506 548.39 493.043 530.093C502.978 510.969 505.551 488.935 501.194 467.879C500.599 464.9 499.846 461.995 498.978 459.05C498.096 455.995 496.319 453.774 494.453 451.287C494.247 450.979 493.776 451.205 493.817 451.533C493.954 454.403 493.804 457.198 494.591 459.932C495.418 462.994 496.198 466.117 496.806 469.206C497.819 474.632 498.462 480.216 498.545 485.758C498.751 495.839 497.086 506.042 493.779 515.563C487.31 533.976 475.066 549.724 460.121 562.09C444.172 575.303 425.379 586.206 404.364 587.782C383.677 589.316 363.269 581.986 346.605 569.967C328.963 557.237 314.916 539.505 305.994 519.687C297.065 499.814 295.64 477.336 301.624 456.374C312.73 417.335 349.063 384.634 390.02 380.896C408.575 379.185 427.452 383.597 443.726 392.499C461.968 402.488 476.658 418.252 486.338 436.587C488.956 441.535 491.212 446.694 493.202 451.943C493.544 453.344 495.601 452.476 495.15 451.088Z" fill="white"/>
<path d="M495.828 460.943C494.277 465.413 493.724 470.313 492.693 474.94C491.668 479.622 490.473 484.27 489.1 488.828C486.286 498.287 482.187 507.241 478.73 516.447C478.566 516.912 479.229 517.329 479.509 516.905C484.955 508.505 488.644 498.936 491.615 489.402C492.995 484.898 494.143 480.312 495.071 475.753C496.041 471.078 497.113 465.891 496.846 461.093C496.832 460.54 496.039 460.417 495.828 460.943Z" fill="white"/>
<path d="M491.434 464.436C489.685 468.209 488.845 472.59 487.561 476.527C486.181 480.587 484.685 484.605 483.072 488.583C479.8 496.6 476.063 504.453 473.194 512.587C472.982 513.113 473.686 513.414 473.959 512.935C478.332 505.28 481.973 497.106 485.232 488.979C486.844 485.001 488.34 480.983 489.72 476.923C490.97 473.157 492.706 468.83 492.93 464.86C492.985 463.964 491.83 463.609 491.434 464.436Z" fill="white"/>
<path d="M482.906 472.611C480.993 474.628 480.276 478.216 479.319 480.779C478.151 483.868 477.044 487.005 475.938 490.142C473.663 496.369 471.217 502.561 468.354 508.528C468.047 509.177 469.065 509.772 469.434 509.17C473.022 503.668 475.542 497.633 477.831 491.516C478.999 488.427 480.044 485.242 481.158 482.159C482.148 479.425 484.068 476.131 484.15 473.233C484.156 472.399 483.391 472.051 482.906 472.611Z" fill="white"/>
<path d="M475.478 479.816C473.414 483.295 472.54 487.847 471.181 491.626C469.74 495.638 468.127 499.616 466.508 503.539C463.284 511.495 459.704 519.273 456.008 527.01C455.782 527.427 456.445 527.844 456.725 527.42C461.426 520.168 465.396 512.397 468.791 504.475C470.56 500.422 472.091 496.232 473.505 492.002C474.768 488.345 476.668 483.998 476.845 480.089C476.92 479.358 475.888 479.098 475.478 479.816Z" fill="white"/>
<path d="M468.419 486.419C465.994 490.11 464.587 494.839 462.926 498.879C461 503.451 459.005 507.921 457.017 512.446C453.041 521.495 448.6 530.38 445.321 539.675C445.157 540.14 445.799 540.393 446.025 539.976C451.006 531.412 454.975 522.308 459.013 513.307C461.062 508.83 462.934 504.264 464.744 499.651C466.35 495.618 468.604 491.005 469.178 486.713C469.239 486.316 468.645 486.002 468.419 486.419Z" fill="white"/>
<path d="M459.973 492.585C458.593 494.868 457.944 497.67 457.036 500.171C456.004 503.021 454.808 505.892 453.668 508.756C451.379 514.429 448.851 519.965 446.446 525.597C446.235 526.123 447.028 526.69 447.403 526.143C450.533 520.976 453.074 515.549 455.376 509.986C456.517 507.122 457.549 504.272 458.512 501.319C459.4 498.654 460.637 495.667 460.677 492.885C460.691 492.551 460.205 492.223 459.973 492.585Z" fill="white"/>
<path d="M452.094 499.735C449.382 503.795 447.858 508.928 445.802 513.35C443.493 518.414 441.006 523.39 438.642 528.461C434.222 537.955 429.132 547.865 426.694 558.11C426.659 558.281 426.946 558.356 426.981 558.186C429.201 553.299 431.127 548.282 433.464 543.436C435.794 538.536 438.356 533.717 440.802 528.857C443.159 524.176 445.454 519.446 447.579 514.682C449.622 510.151 452.321 505.093 452.805 500.09C452.914 499.632 452.374 499.311 452.094 499.735Z" fill="white"/>
<path d="M442.992 507.315C440.716 508.211 439.74 511.499 438.776 513.563C436.713 517.93 434.951 522.482 433.004 526.89C428.686 536.76 424.122 546.438 419.62 556.164C419.401 556.635 420.119 557.045 420.399 556.622C426.145 547.962 430.825 538.325 435.027 528.858C437.063 524.272 438.935 519.707 440.854 515.08C441.886 512.674 443.703 510.336 443.71 507.725C443.723 507.39 443.259 507.227 442.992 507.315Z" fill="white"/>
<path d="M437.368 510.296C434.327 512.62 432.277 517.097 430.419 520.439C428.144 524.444 426.094 528.477 424.113 532.612C420.103 540.944 416.297 549.583 413.633 558.468C413.442 559.158 414.324 559.548 414.686 558.891C419.099 551.12 422.481 542.645 426.3 534.56C428.186 530.548 430.188 526.576 432.312 522.701C433.447 520.671 434.636 518.634 435.831 516.652C436.842 514.971 438.243 513.296 438.837 511.389C439.07 510.583 438.181 509.695 437.368 510.296Z" fill="white"/>
<path d="M426.947 517.986C423.9 521.588 421.98 526.215 419.958 530.467C417.846 534.896 415.961 539.352 413.959 543.767C413.392 545.004 415.265 545.769 415.839 544.587C418.039 540.425 419.999 536.126 421.96 531.826C423.969 527.466 426.49 523.208 428.321 518.758C428.662 517.938 427.528 517.303 426.947 517.986Z" fill="white"/>
<path d="M417.64 525.704C414.927 527.098 413.274 530.304 411.811 532.819C409.974 535.881 408.429 539.073 407.008 542.36C403.927 549.243 400.962 556.167 397.703 562.96C397.348 563.671 398.421 564.259 398.845 563.651C403.177 557.889 405.828 551.115 408.67 544.54C410.145 541.246 411.614 537.897 413.267 534.691C414.743 531.841 417.114 529.046 417.948 525.943C417.927 525.779 417.797 525.628 417.64 525.704Z" fill="white"/>
<path d="M407.478 531.473C404.772 533.811 403.57 537.516 402.19 540.687C400.503 544.507 398.931 548.369 396.95 552.06C396.226 553.372 398.331 554.219 399.062 552.962C401.071 549.49 402.895 545.874 404.493 542.231C405.921 538.998 407.862 535.424 408.08 531.842C408.093 531.507 407.724 531.22 407.478 531.473Z" fill="white"/>
<path d="M396.059 539.622C392.595 543.887 391.011 549.86 389.029 554.884C386.795 560.55 384.439 566.12 381.849 571.608C381.542 572.258 382.499 572.804 382.929 572.251C386.421 567.316 388.901 561.841 391.094 556.291C393.157 551.035 395.91 545.527 396.763 539.922C396.825 539.526 396.299 539.314 396.059 539.622Z" fill="white"/>
<path d="M386.116 546.253C383.082 549.076 381.71 553.634 380.234 557.373C378.499 561.699 376.825 566.073 375.09 570.4C374.796 571.159 375.849 571.582 376.204 570.871C378.37 566.88 380.187 562.765 382.12 558.692C383.869 554.919 386.486 550.982 387.128 546.792C387.183 546.341 386.513 545.87 386.116 546.253Z" fill="white"/>
<path d="M377.895 550.225C375.107 553.239 373.898 557.333 372.484 561.119C371.022 564.967 369.793 568.897 368.796 572.909C368.686 573.367 369.39 573.668 369.616 573.251C371.754 569.929 373.162 566.088 374.473 562.37C375.874 558.474 377.507 554.66 378.729 550.676C378.893 550.211 378.292 549.842 377.895 550.225Z" fill="white"/>
<path d="M369.401 555.119C367.427 557.532 366.463 560.485 365.439 563.389C364.414 566.294 363.28 569.213 362.542 572.192C362.433 572.65 363.069 572.848 363.363 572.534C367.23 567.941 367.12 560.847 370.379 555.83C370.748 555.228 369.934 554.497 369.401 555.119Z" fill="white"/>
<path d="M361.085 560.103C359.015 563.971 358.052 568.257 356.508 572.337C356.337 572.747 356.884 573.123 357.164 572.699C359.726 569.213 360.58 564.497 361.905 560.444C362.062 559.925 361.358 559.624 361.085 560.103Z" fill="white"/>
<path d="M497.75 472.753C498.394 482.778 494.903 492.6 490.749 501.56C488.693 505.982 486.336 510.22 483.924 514.464C481.649 518.47 478.882 522.537 477.427 526.883C477.215 527.41 477.932 527.82 478.267 527.389C481.322 523.842 483.651 519.385 485.92 515.325C488.509 510.725 490.969 505.975 493.08 501.102C496.953 492.121 499.364 482.546 497.805 472.746C497.798 472.691 497.743 472.698 497.75 472.753Z" fill="white"/>
<path d="M498.081 493.59C495.567 500.124 493.279 506.686 490.232 512.953C487.13 519.227 482.805 524.6 479.341 530.642C478.972 531.243 479.874 531.797 480.386 531.455C485.983 527.367 489.864 520.662 492.822 514.572C496.013 508.12 498.233 501.012 498.717 493.788C498.676 493.46 498.204 493.242 498.081 493.59Z" fill="white"/>
<path d="M492.475 523.334C486.147 530.456 478.836 536.369 471.36 542.302C470.909 542.692 471.353 543.581 471.921 543.232C479.916 538.788 490.495 533.244 493.425 523.826C493.527 523.313 492.858 522.842 492.475 523.334Z" fill="white"/>
<path d="M452.91 557.717C458.132 558.618 464.555 553.594 468.648 550.805C473.767 547.332 479.507 543.504 483.709 538.924C483.955 538.671 483.627 538.268 483.313 538.419C478.01 540.859 473.65 545.514 468.908 548.884C466.304 550.709 463.632 552.432 460.694 553.799C458.124 555.01 455.028 555.564 452.739 557.238C452.52 557.266 452.63 557.696 452.91 557.717Z" fill="white"/>
<path d="M443.959 567.389C450.164 566.39 456.656 562.801 461.843 559.431C464.822 557.503 467.733 555.473 470.521 553.347C472.954 551.488 476.603 549.587 478.222 546.997C478.455 546.634 478.256 545.937 477.662 546.067C474.915 546.744 472.55 549.15 470.316 550.818C467.623 552.821 464.883 554.885 462.122 556.786C459.163 558.878 456.273 561.072 453.109 562.856C450.102 564.565 446.918 565.741 443.822 567.184C443.706 567.143 443.795 567.409 443.959 567.389Z" fill="white"/>
<path d="M430.455 574.854C435.273 576.083 441.28 573.943 445.859 572.371C448.47 571.489 451.012 570.504 453.534 569.355C455.741 568.357 458.406 567.468 459.93 565.445C460.121 565.199 459.909 564.837 459.581 564.878C457.148 564.96 454.886 566.41 452.734 567.401C450.362 568.42 447.984 569.384 445.538 570.245C442.872 571.134 440.193 571.914 437.439 572.536C435.061 573.056 432.642 573.247 430.38 574.252C430.127 574.451 430.168 574.779 430.455 574.854Z" fill="white"/>
<path d="M421.326 580.439C423.916 582.058 427.709 581.75 430.613 581.442C433.518 581.134 438.076 580.73 439.996 578.324C440.283 577.955 439.955 577.552 439.566 577.545C438.233 577.545 437.03 578.14 435.746 578.523C433.982 579.077 432.192 579.412 430.381 579.583C427.476 579.891 424.244 579.352 421.394 580.097C421.291 580.166 421.202 580.343 421.326 580.439Z" fill="white"/>
<path d="M413.173 584.513C415.927 587.001 420.11 586.255 423.267 585.305C423.964 585.106 423.65 583.924 422.953 584.122C419.706 584.806 416.549 584.424 413.255 584.281C413.145 584.295 413.05 584.418 413.173 584.513Z" fill="white"/>
<path d="M320.972 416.637C314.303 424.579 310.259 434.859 307.91 444.926C305.444 455.397 304.947 466.065 305.844 476.781C305.871 477.444 306.91 477.314 306.828 476.658C306.252 466.29 306.873 455.718 309.27 445.589C311.694 435.234 316.272 426.11 321.041 416.739C321.136 416.616 321.02 416.575 320.972 416.637Z" fill="white"/>
<path d="M328.482 410.088C321.867 414.914 320.4 424.927 319.567 432.472C318.612 441.254 318.839 450.166 319.223 459.003C319.23 459.502 320.125 459.556 320.166 458.996C320.799 442.758 319.511 424.483 328.667 410.232C328.653 410.123 328.585 410.02 328.482 410.088Z" fill="white"/>
<path d="M339.675 398.359C334.543 400.834 333.362 409.589 332.426 414.537C331.17 421.358 330.877 428.336 330.468 435.272C330.407 436.113 331.657 436.345 331.766 435.443C332.818 429.203 333.302 422.868 334.299 416.635C334.859 413.122 335.528 409.595 336.717 406.226C337.618 403.67 338.999 401.387 340.256 399.008C340.481 398.591 340.037 398.147 339.675 398.359Z" fill="white"/>
<path d="M354.258 389.759C350.923 390.177 348.696 396.786 347.746 399.403C345.977 404.345 345.089 409.676 344.523 414.911C343.404 425.046 343.843 435.209 343.667 445.337C343.673 445.836 344.357 445.973 344.459 445.46C345.613 436.042 345.693 426.481 346.792 417.07C347.365 411.89 348.212 406.675 349.749 401.652C350.377 399.574 351.177 397.53 352.161 395.63C352.974 394.14 354.894 392.178 354.955 390.449C354.9 390.012 354.64 389.711 354.258 389.759Z" fill="white"/>
<path d="M364.727 385.117C362.24 385.206 360.73 390.004 360.129 391.856C358.756 395.971 358.018 400.283 357.493 404.514C356.414 412.756 356.286 421.046 355.986 429.302C355.945 429.863 356.738 429.985 356.888 429.411C358.391 421.893 358.636 414.089 359.516 406.482C359.987 402.258 360.629 398.069 361.728 393.988C362.179 392.266 362.746 390.585 363.545 388.985C364.078 387.919 365.172 386.894 365.356 385.705C365.479 385.356 365.11 385.069 364.727 385.117Z" fill="white"/>
<path d="M375.675 381.637C371.753 388.902 371.707 397.848 371.715 405.899C371.695 406.623 372.857 406.589 372.938 405.912C374.516 398.107 373.736 389.654 377.439 382.415C378.012 381.233 376.256 380.509 375.675 381.637Z" fill="white"/>
<path d="M385.038 380.576C387.349 386.173 389.222 391.824 390.624 397.702C391.938 403.312 392.656 409.053 393.703 414.753C393.853 415.511 395.152 415.682 395.206 414.787C395.471 403.148 392.181 390.177 386.412 380.015C385.974 379.181 384.703 379.674 385.038 380.576Z" fill="white"/>
<path d="M394.326 379.358C402.748 392.964 409.714 406.918 411.022 423.136C411.049 423.799 412.109 423.833 412.191 423.156C412.955 415.064 411.067 407.082 407.915 399.647C404.695 392.109 400.464 384.92 394.681 379.091C394.483 378.838 394.127 379.105 394.326 379.358Z" fill="white"/>
<path d="M404.468 379.199C406.594 383.764 409.615 387.939 412.008 392.415C414.483 397.103 416.636 401.887 418.53 406.814C422.318 416.669 424.924 426.838 427.208 437.102C427.351 437.806 428.336 437.683 428.356 436.959C427.958 426.236 425.079 415.657 421.059 405.72C419.042 400.697 416.752 395.709 414.106 390.987C411.672 386.627 409.02 381.85 405.322 378.481C404.891 378.147 404.242 378.728 404.468 379.199Z" fill="white"/>
<path d="M418.752 382.853C422.819 385.62 426.093 388.265 428.738 392.543C431.739 397.442 433.715 403.026 435.343 408.486C436.991 414.11 438.099 419.858 439.316 425.592C440.267 430.082 440.876 434.947 442.476 439.301C442.654 439.834 443.645 439.765 443.679 439.15C443.842 434.243 442.918 429.083 442.152 424.293C441.16 418.142 439.663 411.943 437.755 406.018C436.004 400.462 433.755 394.913 430.433 390.109C427.917 386.426 424.035 382.025 419.401 381.384C418.553 381.268 418.027 382.389 418.752 382.853Z" fill="white"/>
<path d="M435.832 388.434C436.194 389.999 438.204 391.413 439.298 392.609C440.972 394.454 442.599 396.361 444.076 398.397C447.418 402.921 450.406 407.711 453.031 412.713C455.642 417.606 457.94 422.65 459.806 427.803C460.661 430.194 461.461 432.593 462.151 435.006C462.733 436.987 462.917 439.352 463.765 441.245C464.23 442.297 465.638 442.01 465.898 440.978C466.417 438.914 465.746 436.221 465.268 434.171C464.748 431.793 464.064 429.435 463.223 427.153C461.179 421.467 458.608 416.014 455.614 410.724C452.763 405.695 449.605 400.87 445.893 396.504C444.266 394.597 442.592 392.752 440.774 391.092C439.584 390.019 437.732 388.085 436.023 388.188C435.962 388.14 435.818 388.325 435.832 388.434Z" fill="white"/>
<path d="M454.764 399.058C455.797 400.651 457.348 401.956 458.538 403.473C459.918 405.188 461.142 406.978 462.27 408.892C464.663 412.924 466.543 417.297 468.15 421.705C471.219 430.261 473.046 439.528 473.403 448.59C473.41 449.534 475.022 449.554 475.07 448.604C475.964 438.885 474.042 429.297 470.466 420.249C468.688 415.807 466.446 411.645 463.787 407.702C461.675 404.579 458.838 400.103 455.338 398.32C454.867 398.102 454.552 398.696 454.764 399.058Z" fill="white"/>
<path d="M300.188 454.666C296.717 459.321 297.99 467.713 298.606 473.078C299.447 480.247 301.048 487.266 302.218 494.394C302.259 494.722 302.751 494.66 302.764 494.325C302.1 487.689 300.726 481.142 299.843 474.533C299.398 470.98 299.063 467.412 299.171 463.845C299.28 460.721 300.025 457.796 300.421 454.748C300.462 454.632 300.284 454.543 300.188 454.666Z" fill="white"/>
<path d="M316.838 420.875C315.028 424.156 314.427 427.785 313.942 431.455C313.369 435.747 313.021 440.066 312.953 444.406C312.784 452.368 312.71 460.651 313.811 468.565C313.866 469.002 314.536 469.03 314.59 468.578C315.498 460.746 314.759 452.62 314.99 444.706C315.099 440.694 315.255 436.621 315.753 432.616C316.211 428.727 317.126 424.948 317.474 421.073C317.481 420.683 317.023 420.574 316.838 420.875Z" fill="white"/>
<path d="M329.446 407.58C328.284 410.28 328.004 413.369 327.588 416.253C327.165 419.527 326.796 422.794 326.592 426.04C326.265 432.3 326.266 438.519 326.492 444.766C326.479 445.101 327.032 445.087 327.046 444.752C327.421 438.43 327.789 432.054 328.444 425.753C328.723 422.663 329.003 419.574 329.392 416.472C329.754 413.594 330.492 410.614 330.402 407.682C330.395 407.184 329.616 407.17 329.446 407.58Z" fill="white"/>
<path d="M344.472 396.759C342.142 397.662 341.179 400.614 340.448 402.76C339.444 405.829 338.911 409.116 338.481 412.335C337.621 418.773 337.328 425.307 337.309 431.806C337.281 432.476 338.211 432.36 338.368 431.84C339.864 426.045 339.849 419.716 340.552 413.798C340.928 410.585 341.419 407.414 342.252 404.311C342.942 401.837 344.275 399.616 344.91 397.149C345.04 396.855 344.739 396.67 344.472 396.759Z" fill="white"/>
<path d="M358.262 388.48C355.707 391.133 354.935 395.172 354.259 398.644C353.399 402.861 353.16 407.166 352.641 411.451C352.546 412.019 353.393 412.135 353.544 411.561C354.404 407.788 355.032 403.933 355.715 400.072C356.391 396.156 357.716 392.547 358.905 388.733C358.98 388.446 358.556 388.166 358.262 388.48Z" fill="white"/>
<path d="M371.534 382.71C367.406 384.782 366.738 392.306 366.294 396.304C365.578 402.114 365.647 407.991 365.094 413.78C365.053 414.34 365.928 414.675 366.133 414.094C367.738 409.173 367.683 403.849 368.099 398.744C368.358 395.935 368.672 393.119 369.335 390.426C369.956 387.85 371.364 385.786 372.224 383.346C372.293 383.004 371.951 382.491 371.534 382.71Z" fill="white"/>
<path d="M381.027 380.911C382.115 391.381 382.745 401.742 383.28 412.226C383.28 412.67 383.943 412.642 384.004 412.246C386.108 401.987 383.29 391.012 381.792 380.816C381.676 380.33 380.965 380.419 381.027 380.911Z" fill="white"/>
<path d="M388.899 379.926C389.481 382.796 390.91 385.338 392.126 387.963C393.364 390.751 394.499 393.607 395.579 396.471C397.918 402.731 398.944 409.155 400.469 415.572C400.681 416.378 401.925 416.556 402.027 415.599C402.88 409.106 401.02 402.231 398.709 396.19C397.479 393.012 395.933 389.985 394.286 387.026C392.85 384.429 391.346 381.73 389.098 379.735C389.043 379.741 388.886 379.817 388.899 379.926Z" fill="white"/>
<path d="M399.007 379.494C401.687 383.601 404.619 387.51 407.149 391.746C409.685 396.038 411.592 400.63 414.176 404.86C414.593 405.53 415.694 405.004 415.605 404.293C414.77 399.4 411.974 394.807 409.295 390.7C406.54 386.436 403.511 382.206 399.793 378.674C399.287 378.182 398.665 378.981 399.007 379.494Z" fill="white"/>
<path d="M411.528 380.592C413.216 383.435 415.527 385.922 417.263 388.704C419.143 391.744 420.873 394.915 422.438 398.107C423.935 401.196 425.275 404.36 426.567 407.585C427.778 410.599 428.673 413.763 430.198 416.626C430.772 417.665 432.515 417.391 432.296 416.086C431.831 412.813 430.477 409.539 429.26 406.471C427.865 402.869 426.368 399.336 424.659 395.885C423.025 392.591 421.179 389.379 418.923 386.441C417.071 384.063 414.713 381.193 411.849 380.052C411.61 379.915 411.377 380.278 411.528 380.592Z" fill="white"/>
<path d="M428.867 384.697C436.037 389.186 440.351 397.475 443.892 404.917C447.433 412.359 450.524 420.191 453.067 428.091C453.341 428.945 454.68 428.555 454.571 427.68C453.305 418.899 449.593 410.534 445.457 402.778C443.208 398.561 440.74 394.372 437.671 390.703C435.449 388.038 432.701 385.161 429.298 384.143C428.894 384.027 428.505 384.464 428.867 384.697Z" fill="white"/>
<path d="M447.143 393.182C448.476 395.847 450.39 398.273 451.881 400.863C453.856 404.225 455.784 407.649 457.603 411.086C459.407 414.414 460.993 417.77 462.375 421.262C463.585 424.276 464.316 427.46 465.52 430.419C465.834 431.157 466.805 430.925 466.941 430.241C467.556 427.166 466.455 423.694 465.368 420.776C464.014 417.058 462.12 413.464 460.186 409.986C458.265 406.617 456.139 403.384 453.76 400.35C451.778 397.822 449.925 395 447.396 392.984C447.321 392.827 447.061 392.97 447.143 393.182Z" fill="white"/>
<path d="M467.034 408.795C467.102 408.898 467.423 409.69 467.642 410.107C468.223 411.201 468.913 412.28 469.501 413.429C471.19 416.716 472.626 420.201 474 423.638C476.434 429.775 478.089 436.343 481.049 442.247C481.275 442.718 482.225 442.766 482.252 442.096C482.306 439.424 481.41 436.704 480.542 434.203C479.161 430.267 477.616 426.351 475.968 422.503C474.478 419.025 472.939 415.608 471.087 412.342C470.096 410.633 469.214 408.911 467.28 408.542C467.047 408.46 466.965 408.693 467.034 408.795Z" fill="white"/>
<path d="M568.714 364.028C558.72 349.842 500.114 382.054 461.838 403.226L468.592 410.155C481.405 403.831 524.13 386.267 528.608 391.426C533.085 396.586 484.55 456.913 420.651 504.059C367.629 543.18 281.393 577.351 276.574 572.568C271.755 567.785 293.368 543.923 307.984 529.822L303.301 519.913C272.141 547.801 224.282 595.772 234.064 612.706C243.847 629.64 349.722 574.019 427.637 518.622C542.044 437.112 578.708 378.215 568.714 364.028Z" fill="#4452FE"/>
<path d="M570.231 362.839C567.558 359.231 562.911 358.48 558.708 358.617C552.29 358.809 545.928 360.772 539.907 362.803C522.385 368.772 505.752 377.406 489.446 385.999C479.913 391.024 470.51 396.199 461.114 401.429C460.123 401.942 459.365 403.425 460.322 404.416C462.557 406.746 464.84 409.014 467.075 411.344C467.649 411.939 468.538 412.383 469.371 411.946C480.934 406.278 493.05 401.485 505.249 397.349C510.894 395.42 516.703 393.472 522.655 392.671C524.186 392.48 525.949 392.814 527.159 392.718C527.268 392.705 526.851 392.479 526.933 392.247C526.756 392.602 527.022 392.069 526.94 392.301C526.913 392.527 526.892 392.807 526.811 393.04C526.203 395.281 524.221 398.528 522.739 400.879C519.753 405.418 516.466 409.772 513.056 414.03C502.834 426.859 491.567 438.876 479.909 450.441C451.558 478.589 420.487 504.08 385.977 524.28C357.829 540.742 327.897 555.372 297.042 566.175C292.682 567.72 288.253 569.163 283.722 570.23C282.321 570.572 280.859 570.866 279.376 570.996C279.103 571.03 278.829 571.064 278.604 571.037C278.05 571.051 278.549 571.044 278.269 571.023C278.105 571.044 277.872 570.962 277.708 570.982C277.264 570.983 277.893 571.126 277.592 570.941C278.194 571.31 277.736 571.201 277.818 570.525C277.865 569.575 278.255 568.693 278.589 567.818C279.833 564.886 281.671 562.268 283.57 559.698C288.592 552.795 294.353 546.465 300.243 540.286C303.14 537.258 306.147 534.216 309.167 531.284C309.762 530.71 310.206 529.821 309.768 528.988C308.189 525.687 306.664 522.379 305.085 519.079C304.566 518.033 303.096 517.384 302.098 518.286C285.022 533.584 268.315 549.613 253.46 567.132C247.173 574.582 241.092 582.34 236.268 590.829C233.18 596.324 229.778 603.303 230.982 609.815C232.979 620.449 246.025 617.761 253.618 615.867C271.113 611.456 287.828 603.478 303.983 595.459C350.726 572.283 395.425 544.31 437.574 513.713C459.967 497.417 481.814 480.3 502.491 461.831C517.47 448.406 531.977 434.318 544.932 418.925C553.351 408.987 561.461 398.365 567.269 386.643C570.193 380.724 573.458 373.097 571.837 366.358C571.509 365.067 570.976 363.912 570.231 362.839C568.809 360.796 565.713 363.127 567.142 365.225C567.416 365.635 567.976 367.008 568.092 367.493C568.366 368.792 568.38 369.79 568.284 370.801C568.039 374.164 567.048 377.342 565.825 380.438C561.631 390.847 554.921 400.239 548.081 409.035C537.019 423.136 524.535 436.082 511.524 448.372C493.648 465.27 474.624 480.978 455.115 495.914C413.307 527.912 368.937 556.732 322.522 581.644C304.673 591.208 286.447 600.43 267.504 607.466C261.244 609.804 254.799 611.999 248.225 613.155C244.746 613.757 240.017 614.571 236.969 612.842C236.73 612.706 236.176 612.275 235.964 611.913C235.486 611.195 235.151 610.293 234.986 609.425C234.446 606.883 235.047 604.142 235.798 601.716C238.258 593.856 243.205 586.796 248.11 580.295C261.38 562.531 277.342 546.762 293.496 531.635C297.172 528.176 300.91 524.765 304.655 521.409C303.678 521.143 302.646 520.883 301.668 520.617C303.247 523.918 304.772 527.225 306.351 530.526C306.536 529.781 306.768 528.974 306.952 528.229C300.365 534.607 293.976 541.237 287.963 548.209C283.214 553.746 277.754 559.815 275.056 566.65C273.867 569.575 273.451 574.236 277.524 574.837C280.47 575.301 283.778 574.221 286.58 573.537C298.949 570.323 310.936 565.38 322.69 560.355C339.72 553.115 356.367 545.034 372.652 536.277C389.449 527.177 405.932 517.34 421.396 506.02C439.86 492.492 457.326 477.646 473.897 461.856C487.297 449.128 500.225 435.738 512.108 421.534C516.262 416.572 520.341 411.452 524.011 406.162C526.32 402.874 528.718 399.409 530.194 395.67C531.082 393.449 531.683 390.708 529.222 389.239C525.627 387.135 519.812 389.029 516.149 389.932C502.043 393.474 488.362 399.074 475.104 404.953C472.74 406.026 470.32 407.107 467.963 408.235C468.708 408.419 469.514 408.651 470.259 408.836C468.024 406.506 465.741 404.237 463.506 401.907C463.24 402.884 462.98 403.916 462.714 404.894C478.766 396.054 494.811 387.16 511.301 379.155C519.051 375.408 526.923 371.758 534.974 368.64C541.384 366.172 548.026 363.785 554.84 362.766C558.708 362.171 564.558 361.439 567.238 365.101C568.612 367.206 571.707 364.875 570.231 362.839Z" fill="white"/>
<path d="M278.183 550.377C270.277 557.752 263.458 566.713 257.78 575.92C254.87 580.616 252.212 585.557 250.6 590.868C249.384 594.907 248.633 599.554 250.773 603.34C250.985 603.703 251.695 603.614 251.524 603.135C248.946 593.185 254.843 583.062 260.056 575.024C265.59 566.446 272.417 558.873 278.375 550.575C278.532 550.5 278.334 550.247 278.183 550.377Z" fill="white"/>
<path d="M263.406 586.71C263.483 592.643 270.987 592.703 275.258 592.224C284.908 591.238 294.434 587.047 303.291 583.273C326.109 573.476 347.874 561.034 369.373 548.681C373.569 546.268 377.696 543.753 381.824 541.237C383.99 539.911 386.163 538.195 388.418 537.135C388.89 536.91 388.568 536.117 388.097 536.342C372.871 543.357 358.575 552.476 343.808 560.488C332.792 566.531 321.639 572.37 310.199 577.689C300.653 582.16 290.887 586.658 280.616 589.332C275.558 590.631 266.018 593.38 263.461 586.704C263.509 586.642 263.4 586.656 263.406 586.71Z" fill="white"/>
<path d="M460.258 478C480.84 460.987 498.025 440.344 517.644 422.285C517.944 422.025 517.609 421.567 517.247 421.779C496.542 438.698 479.746 459.791 460.06 477.748C459.909 477.877 460.053 478.137 460.258 478Z" fill="white"/>
<path d="M482.092 468.326C492.13 458.463 502.674 449.091 512.773 439.276C522.668 429.597 532.719 419.843 540.987 408.702C541.274 408.332 540.72 407.902 540.434 408.271C530.751 418.756 521 429.139 510.75 439.085C500.999 448.579 491.269 458.238 482.017 468.169C481.859 468.244 481.989 468.395 482.092 468.326Z" fill="white"/>
<path d="M243.1 140.961C239.287 146.88 237.334 154.343 235.401 161.082C233.399 168.163 231.863 175.407 230.716 182.659C228.367 198.057 227.83 213.728 228.659 229.228C230.366 261.055 237.848 292.881 250.612 322.102C257.079 336.952 264.887 352.301 276.042 364.232C276.746 364.977 277.915 364.109 277.306 363.241C269.506 351.056 261.782 339.029 255.643 325.915C249.12 311.961 243.965 297.391 240.047 282.499C232.087 252.177 228.842 220.043 232.494 188.878C233.47 180.704 234.904 172.639 236.905 164.67C237.943 160.542 239.159 156.503 240.545 152.497C241.809 148.841 243.422 145.307 244.405 141.63C244.74 140.755 243.516 140.298 243.1 140.961Z" fill="white"/>
<path d="M253.372 142.285C253.203 158.687 256.117 175.315 260.48 191.094C264.829 206.765 271.106 221.861 278.885 236.102C294.513 264.687 316.024 289.704 340.87 310.75C354.91 322.653 370.022 334.255 386.501 342.577C387.684 343.151 388.736 341.353 387.697 340.595C374.526 331.193 360.883 322.461 348.334 312.259C335.784 302.058 324.007 290.926 313.221 278.838C292.085 255.051 275.2 227.512 265.511 197.128C259.774 179.244 257.325 161.003 255.88 142.36C255.647 140.945 253.365 140.898 253.372 142.285Z" fill="white"/>
<path d="M242.759 149.333C243.075 157.623 242.885 165.865 242.141 174.121C241.391 182.322 240.353 190.448 239.883 198.67C239.065 213.432 241.385 227.968 245.166 242.21C252.456 269.84 265.384 296.376 282.924 318.947C292.453 331.192 303.39 343.15 316.356 351.801C316.78 352.081 317.265 351.52 316.882 351.124C306.424 341.66 296.28 332.046 287.503 320.928C278.665 309.762 270.947 297.79 264.425 285.168C257.896 272.491 252.557 259.11 248.618 245.388C244.638 231.337 241.745 216.651 242.242 201.984C242.847 184.639 247.785 166.418 244.126 149.162C243.962 148.294 242.705 148.451 242.759 149.333Z" fill="white"/>
<path d="M250.195 151.512C248.366 163.069 249.653 175.569 250.823 187.139C252.096 199.529 254.189 211.817 257.26 223.927C263.23 247.668 272.808 270.514 287.034 290.556C290.944 296.064 295.216 301.36 299.885 306.273C304.553 311.186 309.625 316.216 315.401 319.769C315.825 320.049 316.535 319.515 316.146 319.064C312.003 314.807 307.519 310.926 303.48 306.601C299.385 302.282 295.591 297.704 291.996 292.934C284.668 283.189 278.515 272.631 273.361 261.615C263.03 239.419 256.561 215.685 253.421 191.478C252.593 184.863 251.977 178.165 251.586 171.495C251.257 164.873 251.365 158.196 250.701 151.56C250.715 151.225 250.216 151.232 250.195 151.512Z" fill="white"/>
<path d="M262.628 414.111C261.561 412.689 259.388 412.184 257.98 411.138C256.503 409.99 255.369 408.467 254.596 406.731C252.942 402.829 253.098 398.311 253.972 394.204C255.809 385.367 261.644 376.085 270.398 372.823C276.077 370.724 280.582 372.993 286.029 374.365C286.89 374.591 287.621 373.333 287.04 372.684C283.308 368.598 276.699 367.703 271.573 368.9C266.4 370.159 261.985 373.488 258.665 377.568C252.454 385.176 248.164 397.041 251.596 406.718C252.444 409.055 253.825 411.214 255.745 412.806C257.297 414.111 260.373 416.059 262.457 414.965C262.71 414.767 262.887 414.411 262.628 414.111Z" fill="white"/>
<path d="M285.122 388.861C285.457 387.542 284.882 386.059 284.937 384.72C284.991 383.38 285.387 382.109 286.077 380.967C287.451 378.63 289.972 377.037 292.392 375.957C295.18 374.719 298.207 374.063 301.255 374.014C304.187 373.925 307.058 374.676 309.935 374.594C310.707 374.553 311.131 373.5 310.618 372.954C305.669 367.576 294.619 370.236 289.179 373.36C286.329 374.994 283.692 377.434 282.53 380.578C281.629 383.135 281.445 387.878 284.199 389.476C284.603 389.592 285.054 389.203 285.122 388.861Z" fill="white"/>
<path d="M296.977 372.662C294.906 368.979 294.174 365.35 296.244 361.481C298.218 357.736 301.697 355.801 305.072 353.491C305.838 352.95 305.216 351.973 304.437 351.96C295.04 352.303 287.046 367.408 295.508 373.79C296.184 374.316 297.476 373.544 296.977 372.662Z" fill="white"/>
<path d="M317.171 365.859C317.246 362.906 316.425 360.788 318.735 358.389C320.853 356.235 323.983 355.066 326.929 354.642C330.202 354.177 333.701 354.627 336.586 356.376C338.028 357.251 339.224 358.378 340.174 359.759C341.261 361.344 341.651 363.572 343.244 364.761C343.92 365.287 344.945 365.048 345.287 364.228C347.104 360.113 341.732 354.899 338.506 353.082C334.685 350.95 330.065 350.418 325.78 351.232C322.042 351.977 318.146 353.687 315.816 356.81C313.814 359.449 312.831 364.014 315.422 366.522C315.989 367.062 317.157 366.638 317.171 365.859Z" fill="white"/>
<path d="M408.568 333.429C407.768 332.807 407.638 332.213 406.538 331.851C405.554 331.53 404.344 331.626 403.299 331.701C400.872 331.838 398.446 332.419 396.177 333.37C391.373 335.359 387.191 338.77 384.157 342.926C381.206 346.849 379.081 351.613 378.754 356.541C378.522 360.012 379.234 367.92 383.697 368.527C384.148 368.582 384.551 368.254 384.66 367.796C385.022 365.807 383.662 364.256 383.047 362.445C382.349 360.422 382.075 358.235 382.198 356.11C382.546 351.79 384.363 347.676 386.994 344.292C389.72 340.786 393.246 337.901 397.36 336.165C399.363 335.303 401.515 334.756 403.723 334.646C404.659 334.585 405.616 334.687 406.545 334.571C407.42 334.461 407.803 333.969 408.609 333.757C408.657 333.696 408.691 333.525 408.568 333.429Z" fill="white"/>
<path d="M382.279 352.768C379.6 348.661 374.009 347.028 369.348 348.389C364.687 349.75 361.291 353.673 358.962 357.685C356.126 362.538 354.5 368.183 354.037 373.794C353.771 377.437 353.253 385.72 357.374 387.592C357.729 387.77 358.372 387.578 358.481 387.12C358.986 385.391 358.296 383.423 357.974 381.742C357.585 379.514 357.461 377.197 357.625 374.956C357.918 370.199 359.161 365.49 361.238 361.232C363.014 357.678 365.597 353.912 369.39 352.271C373.606 350.466 376.969 352.932 380.783 354.565C382.013 355.078 382.895 353.69 382.279 352.768Z" fill="white"/>
<path d="M336.021 374.494C337.579 372.3 338.618 369.949 340.606 368.09C342.588 366.176 345.062 364.645 347.734 363.81C350.351 362.983 353.126 362.969 355.675 363.816C357.069 364.308 359.434 365.456 359.933 363.228C360.083 362.653 359.735 362.086 359.297 361.697C355.237 358.096 347.856 359.464 343.544 361.836C339.334 364.14 334.442 368.972 334.586 374.119C334.559 374.788 335.591 375.048 336.021 374.494Z" fill="white"/>
<path d="M379.659 377.973C380.957 375.034 382.153 371.719 384.599 369.525C387.496 366.941 390.613 366.995 394.01 368.403C396.354 369.386 397.604 366.065 395.513 364.883C387.317 360.189 375.926 368.556 378.36 377.802C378.545 378.39 379.406 378.615 379.659 377.973Z" fill="white"/>
<path d="M420.233 325.028C414.881 321.755 409.907 327.709 408.028 332.22C406.395 336.033 404.715 346.572 411.078 347.275C412.206 347.412 412.91 346.379 412.561 345.368C411.953 343.612 410.695 342.436 410.401 340.53C410.072 338.35 410.502 336.019 411.302 333.975C412.771 330.182 415.572 326.833 419.871 326.573C420.527 326.49 420.889 325.39 420.233 325.028Z" fill="white"/>
<path d="M279.22 410.479C275.687 407.09 269.98 407.193 265.62 408.738C260.618 410.475 256.374 414.282 253.238 418.507C249.91 422.977 247.56 428.157 246.584 433.666C246.126 436.222 246.024 438.956 246.346 441.526C246.578 443.384 247.29 446.849 249.272 447.601C249.736 447.765 250.324 447.58 250.488 447.115C251.062 445.489 249.989 443.124 249.715 441.381C249.366 439.037 249.413 436.755 249.789 434.431C250.574 429.613 252.603 424.972 255.446 421.062C258.09 417.344 261.554 413.967 265.832 412.21C270.268 410.378 273.945 411.361 278.36 412.475C279.563 412.768 279.918 411.169 279.22 410.479Z" fill="white"/>
<path d="M294.142 426.769C293.294 419.99 294.475 412.568 298.13 406.724C299.75 404.133 302.025 401.461 305.094 400.688C306.659 400.326 308.237 400.517 309.693 401.056C311.443 401.726 312.783 403.113 314.792 402.751C315.277 402.634 315.564 402.265 315.509 401.828C315.276 397.748 308.558 396.423 305.346 396.936C301.314 397.552 298.17 400.388 296.032 403.71C292.13 409.807 288.92 420.537 293.138 427.173C293.418 427.638 294.204 427.262 294.142 426.769Z" fill="white"/>
<path d="M310.057 409.285C311.765 406.961 313.125 404.514 315.837 403.119C317.143 402.456 318.598 402.108 320.027 401.984C321.455 401.861 322.842 402.298 324.257 402.066C325.508 401.854 326.177 400.104 325.015 399.25C319.397 395.177 307.329 401.686 308.902 408.93C308.977 409.531 309.674 409.777 310.057 409.285Z" fill="white"/>
<path d="M318.803 400.638C318.926 398.957 318.495 397.289 318.727 395.594C319.068 393.442 320.155 391.473 321.562 389.853C323.018 388.172 324.849 386.832 326.906 385.964C328.861 385.164 331.13 385.102 333.009 384.145C333.535 383.912 333.767 383.106 333.221 382.73C328.641 379.86 321.937 384.42 319.033 387.837C316.321 391.009 313.342 397.823 317.32 401.212C317.819 401.65 318.783 401.363 318.803 400.638Z" fill="white"/>
<path d="M270.45 442.007C266.657 439.65 260.534 441.305 256.96 443.362C253.023 445.632 250.167 449.432 248.357 453.601C244.476 462.528 244.786 473.872 249.735 482.36C252.483 487.014 257.063 490.772 262.599 491.078C263.33 491.153 263.651 490.169 262.94 489.814C254.991 485.756 250.104 479.093 248.981 470.127C247.955 461.926 250.031 452.337 256.612 446.793C258.32 445.358 260.295 444.278 262.441 443.676C264.963 442.971 267.635 443.47 270.116 442.882C270.553 442.827 270.874 442.287 270.45 442.007Z" fill="white"/>
<path d="M419.9 338.785C422.278 335.6 423.596 331.937 427.635 330.487C431.031 329.229 434.667 329.885 437.907 331.367C441.557 333.021 444.619 335.747 447.011 338.891C449.8 342.54 450.566 346.442 452.194 350.569C452.515 351.362 453.533 351.068 453.725 350.378C455.029 345.717 452.281 340.175 449.601 336.512C446.778 332.589 442.54 329.344 437.947 327.697C434.052 326.297 429.438 325.819 425.68 327.734C421.764 329.723 418.594 334.118 418.984 338.567C418.984 339.011 419.613 339.155 419.9 338.785Z" fill="white"/>
<path d="M239.011 88.7747L209.498 116.069C200.581 124.237 203.391 133.381 216.172 135.668L230.367 138.167L239.011 88.7747Z" fill="#4452FE" stroke="white" stroke-width="4.8711" stroke-miterlimit="10" stroke-linecap="round" stroke-linejoin="round"/>
<path d="M277.448 95.5141L295.913 131.241C301.533 141.977 295.711 149.591 282.944 147.413L268.756 144.968L277.448 95.5141Z" fill="#4452FE" stroke="white" stroke-width="4.8711" stroke-miterlimit="10" stroke-linecap="round" stroke-linejoin="round"/>
<path d="M240.328 70.896C236.789 79.002 236.776 82.0023 236.776 82.0023L226.212 142.241L271.122 150.114L281.685 89.8751C281.685 89.8751 283.037 85.5966 282.284 78.2499L240.328 70.896Z" fill="#4452FE" stroke="white" stroke-width="4.8711" stroke-miterlimit="10" stroke-linecap="round" stroke-linejoin="round"/>
<path d="M240.327 70.896L282.339 78.2431C282.366 78.4618 282.168 76.432 281.894 75.1336C280.191 65.0737 269.677 45.8437 266.382 45.2565C263.033 44.6761 246.462 57.8006 241.639 68.0664C240.628 70.1921 239.897 71.8939 240.327 70.896Z" fill="#4452FE" stroke="white" stroke-width="4.8711" stroke-miterlimit="10" stroke-linecap="round" stroke-linejoin="round"/>
<path d="M260.012 81.7594C249.678 79.9432 239.824 86.8405 238.015 97.2289C236.198 107.563 243.096 117.417 253.484 119.226C263.818 121.042 273.672 114.145 275.488 103.811C277.243 93.4297 270.346 83.5757 260.012 81.7594ZM254.222 114.913C246.218 113.527 240.88 105.922 242.32 97.9117C243.706 89.9085 251.312 84.5697 259.322 86.0105C267.325 87.3966 272.664 95.0023 271.223 103.012C269.783 111.022 262.177 116.361 254.222 114.913Z" fill="#4452FE" stroke="white" stroke-width="4.8711" stroke-miterlimit="10" stroke-linecap="round" stroke-linejoin="round"/>
<path d="M271.171 103.028C272.568 95.0547 267.237 87.4587 259.264 86.0615C251.292 84.6643 243.696 89.9949 242.298 97.9677C240.901 105.941 246.232 113.537 254.205 114.934C262.178 116.331 269.774 111 271.171 103.028Z" fill="#4452FE" stroke="white" stroke-width="4.8711" stroke-miterlimit="10" stroke-linecap="round" stroke-linejoin="round"/>
<path d="M231.729 152.601L243.649 154.663C246.939 172.965 233.558 181.414 233.558 181.414C221.712 167.515 231.729 152.601 231.729 152.601Z" fill="#4452FE" stroke="white" stroke-width="4.8711" stroke-miterlimit="10" stroke-linecap="round" stroke-linejoin="round"/>
<path d="M241.728 154.404L233.554 152.984C232.106 157.83 230.651 166.174 234.534 173.685C234.582 173.623 241.101 167.143 241.728 154.404Z" fill="#4452FE" stroke="white" stroke-width="4.8711" stroke-miterlimit="10" stroke-linecap="round" stroke-linejoin="round"/>
<path d="M244.899 154.896L230.144 152.356L231.032 149.246L245.056 151.711L244.899 154.896Z" fill="#4452FE" stroke="white" stroke-width="4.8711" stroke-miterlimit="10" stroke-linecap="round" stroke-linejoin="round"/>
<path d="M245.849 151.834L246.695 147.063C246.832 146.38 246.367 145.772 245.684 145.635L232.459 143.348C231.775 143.211 231.167 143.676 231.031 144.359L230.184 149.13L245.849 151.834Z" fill="#4452FE" stroke="white" stroke-width="4.8711" stroke-miterlimit="10" stroke-linecap="round" stroke-linejoin="round"/>
<path d="M250.804 155.933L262.724 157.995C266.014 176.297 252.634 184.747 252.634 184.747C240.788 170.847 250.804 155.933 250.804 155.933Z" fill="#4452FE" stroke="white" stroke-width="4.8711" stroke-miterlimit="10" stroke-linecap="round" stroke-linejoin="round"/>
<path d="M260.803 157.736L252.629 156.316C251.181 161.162 249.727 169.506 253.61 177.017C253.665 177.01 260.177 170.475 260.803 157.736Z" fill="#4452FE" stroke="white" stroke-width="4.8711" stroke-miterlimit="10" stroke-linecap="round" stroke-linejoin="round"/>
<path d="M263.927 158.289L249.164 155.694L250.107 152.578L264.131 155.043L263.927 158.289Z" fill="#4452FE" stroke="white" stroke-width="4.8711" stroke-miterlimit="10" stroke-linecap="round" stroke-linejoin="round"/>
<path d="M264.931 155.22L265.778 150.45C265.914 149.767 265.449 149.158 264.766 149.022L251.541 146.734C250.858 146.598 250.249 147.063 250.113 147.746L249.266 152.517L264.931 155.22Z" fill="#4452FE" stroke="white" stroke-width="4.8711" stroke-miterlimit="10" stroke-linecap="round" stroke-linejoin="round"/>
<path d="M265.338 48.8857C265.81 53.5466 268.565 58.255 270.479 62.4578C271.477 64.6651 272.414 66.8246 273.357 69.0387C274.075 70.7814 274.499 73.2826 276.509 73.8086C276.857 73.9315 277.185 73.8905 277.424 73.5829C278.675 72.0381 277.731 70.2682 277.13 68.5666C276.268 66.12 275.092 63.8239 273.971 61.5209C271.811 57.1268 269.801 52.1586 266.916 48.1883C266.431 47.4161 265.221 47.9562 265.338 48.8857Z" fill="white"/>
<path d="M259.328 77.6248C262.001 80.7887 268.486 80.6988 272.334 81.2723C274.883 81.6751 277.918 82.4059 278.13 85.4334C278.384 88.3448 277.646 91.7689 277.4 94.6872C276.793 101.371 275.557 107.912 274.157 114.473C273.413 117.842 272.607 121.164 271.801 124.486C271.432 125.976 271.063 127.465 270.811 128.996C270.497 130.479 270.688 132.01 270.36 133.384C270.265 133.951 270.989 134.416 271.44 134.026C273.531 132.099 273.934 129.105 274.597 126.412C275.56 122.571 276.523 118.73 277.376 114.903C279.104 107.412 280.593 99.7851 281.241 92.0964C281.698 86.8749 282.804 81.0724 276.838 78.654C274.5 77.7249 271.807 77.5067 269.326 77.2063C266.34 76.8583 263.155 76.2574 260.141 76.1348C259.43 76.2238 258.754 77.0303 259.328 77.6248Z" fill="white"/>
<path d="M230.081 100.832C225.407 105.637 219.346 109.117 214.61 113.874C212.437 116.034 210.312 118.577 209.404 121.523C208.659 124.003 208.687 127.776 211.25 129.177C212.262 129.716 213.246 128.705 213.177 127.714C213.068 126.395 212.165 125.397 211.994 124.03C211.837 122.773 212.24 121.556 212.766 120.435C214.173 117.483 216.702 115.056 219.093 112.869C222.981 109.328 228.694 106.17 230.792 101.187C231.072 100.763 230.423 100.456 230.081 100.832Z" fill="white"/>
<path d="M278.983 117.534C278.026 119.209 277.938 121.163 277.562 123.043C277.084 125.435 276.497 127.84 275.902 130.192C275.315 132.597 274.728 135.003 274.42 137.429C274.175 139.015 273.43 141.94 274.442 143.368C276.342 146.129 281.523 146.702 284.53 146.77C287.537 146.838 292.499 146.994 294.364 144.151C294.788 143.543 294.623 142.675 293.919 142.374C291.288 141.315 288.124 142.655 285.349 142.669C283.634 142.718 281.939 142.486 280.285 142.137C279.718 142.042 278.132 141.796 277.743 141.345C277.401 140.832 277.722 139.404 277.824 138.891C278.213 134.9 279.333 130.984 280.119 127.054C280.658 124.265 281.635 120.09 280.09 117.506C279.775 117.213 279.16 117.179 278.983 117.534Z" fill="white"/>
<path d="M245.293 97.262C247.706 97.4598 249.804 95.5869 251.635 94.2471C254.027 92.5039 256.979 90.8017 258.674 88.3684C258.906 88.0062 258.667 87.4253 258.181 87.5416C255.42 88.1093 253.254 90.3239 251.074 91.985C249.1 93.5093 246.38 94.8493 245.157 97.057C245.164 97.1116 245.232 97.2142 245.293 97.262Z" fill="white"/>
<path d="M244.809 100.932C248.513 99.9132 251.629 96.4135 254.56 94.1031C256.275 92.7223 258.113 91.4371 260.102 90.4663C261.305 89.8715 262.344 89.7415 262.678 88.4225C262.712 88.2516 262.637 88.0944 262.514 87.9988C260.375 85.9898 255.366 90.3372 253.746 91.595C250.562 94.1037 246.769 97.0772 244.481 100.529C244.337 100.713 244.535 100.966 244.809 100.932Z" fill="white"/>
<path d="M244.843 104.315C248.786 103.433 251.766 101.061 254.964 98.6615C256.788 97.267 258.551 95.8247 260.376 94.4302C261.743 93.3706 263.178 92.4136 263.799 90.7255C263.97 90.3154 263.642 89.9122 263.205 89.9669C259.904 90.2135 256.726 94.1095 254.253 96.085C251.075 98.6484 247.638 100.911 244.665 103.782C244.413 103.98 244.467 104.418 244.843 104.315Z" fill="white"/>
<path d="M245.24 107.93C249.484 107.677 253.475 103.623 256.598 101.067C258.511 99.4947 260.315 97.9362 262.297 96.4665C263.773 95.3933 265.789 94.6412 266.158 92.707C266.233 92.42 266.021 92.0578 265.734 91.9827C264.059 91.4703 262.966 92.4957 261.64 93.439C259.549 94.9224 257.54 96.6176 255.586 98.306C253.734 99.926 251.93 101.485 249.955 103.009C248.179 104.342 246.21 105.477 244.755 107.158C244.516 107.466 244.851 107.924 245.24 107.93Z" fill="white"/>
</svg>
