<svg width="22" height="38" viewBox="0 0 22 38" fill="none" xmlns="http://www.w3.org/2000/svg">
<circle cx="10.7771" cy="9.62099" r="1.77344" fill="#4452FE"/>
<path fill-rule="evenodd" clip-rule="evenodd" d="M10.777 0.16449C4.82504 0.16449 0 4.98954 0 10.9415V26.4932C0 32.4452 4.82504 37.2702 10.777 37.2702C16.729 37.2702 21.5541 32.4452 21.5541 26.4932V10.9415C21.5541 4.98954 16.729 0.16449 10.777 0.16449ZM10.777 1.80151C5.57846 1.80151 1.36418 6.01579 1.36418 11.2144V26.2204C1.36418 31.4189 5.57846 35.6332 10.777 35.6332C15.9756 35.6332 20.1899 31.4189 20.1899 26.2204V11.2144C20.1899 6.01579 15.9756 1.80151 10.777 1.80151Z" fill="#4452FE"/>
</svg>
